<svg width="24" height="24" viewBox="0 0 24 24" fill="none" xmlns="http://www.w3.org/2000/svg">
<path fill-rule="evenodd" clip-rule="evenodd" d="M4 2.2C4 2.08954 4.08954 2 4.2 2H4.5L15.9046 2.00099C15.9603 2.001 16.0135 2.02426 16.0514 2.06518L16.14 2.161L19.867 6.195L19.9469 6.28153C19.981 6.31848 20 6.36693 20 6.41723V21.8C20 21.9105 19.9105 22 19.8 22H4.2C4.08954 22 4 21.9105 4 21.8V2.2ZM15.2736 3.13774L18.0907 5.9549C18.2167 6.08089 18.1275 6.29632 17.9493 6.29632H15.1321C15.0217 6.29632 14.9321 6.20677 14.9321 6.09632V3.27916C14.9321 3.10098 15.1476 3.01174 15.2736 3.13774ZM14 10C14 11.1046 13.1046 12 12 12C10.8954 12 10 11.1046 10 10C10 8.89543 10.8954 8 12 8C13.1046 8 14 8.89543 14 10ZM8 15C8 14 9.75 13 11.25 13H12.75C14.25 13 16 14 16 15V15.8C16 15.9105 15.9105 16 15.8 16H8.2C8.08954 16 8 15.9105 8 15.8V15Z" fill="white"/>
</svg>
