<svg width="24" height="24" viewBox="0 0 24 24" fill="none" xmlns="http://www.w3.org/2000/svg">
<path fill-rule="evenodd" clip-rule="evenodd" d="M12 11C14.4854 11 16.5 8.98528 16.5 6.5C16.5 4.01472 14.4854 2 12 2C9.51462 2 7.5 4.01472 7.5 6.5C7.5 8.98528 9.51462 11 12 11ZM10.3125 12.25C6.9375 12.25 3 14.5 3 16.75V22.8C3 22.9105 3.08954 23 3.2 23H20.8C20.9105 23 21 22.9105 21 22.8V16.75C21 14.5 17.0625 12.25 13.6875 12.25H10.3125ZM13 15C13 15.5523 12.5523 16 12 16C11.4477 16 11 15.5523 11 15C11 14.4477 11.4477 14 12 14C12.5523 14 13 14.4477 13 15ZM13 17.2C13 17.0895 12.9105 17 12.8 17H10.7C10.5895 17 10.5 17.0895 10.5 17.2V17.8C10.5 17.9105 10.5895 18 10.7 18H11.3C11.4105 18 11.5 18.0895 11.5 18.2V21.3C11.5 21.4105 11.5895 21.5 11.7 21.5H12.8C12.9105 21.5 13 21.4105 13 21.3V17.2Z" fill="white"/>
</svg>
