<svg width="24" height="24" viewBox="0 0 24 24" fill="none" xmlns="http://www.w3.org/2000/svg">
<path fill-rule="evenodd" clip-rule="evenodd" d="M5.7781 17.4838C5.76262 17.5877 5.8268 17.6871 5.92887 17.7173L10.9143 19.1917C11.0279 19.2253 11.1476 19.1617 11.1817 19.0497L11.3668 18.4414C11.4009 18.3294 11.3365 18.2114 11.2228 18.1778L10.965 18.1016C10.728 18.0315 10.7793 17.6871 11.0267 17.6871H11.0595C11.1781 17.6871 11.2743 17.5923 11.2743 17.4754V16.8403C11.2743 16.7234 11.1781 16.6286 11.0595 16.6286H6.09096C5.9844 16.6286 5.89396 16.7056 5.87849 16.8095L5.7781 17.4838ZM5.95685 19.3133C5.84325 19.2798 5.77878 19.1617 5.81287 19.0497L5.99799 18.4414C6.03207 18.3294 6.15179 18.2659 6.2654 18.2995L11.0842 19.7246C11.3501 19.8032 11.5402 20.0134 11.597 20.2628C11.6556 20.52 11.5677 20.8076 11.3234 20.9875C10.2999 21.7413 8.22591 22.3946 5.78864 20.8891C5.68813 20.827 5.66095 20.6948 5.72674 20.5976L6.08411 20.0691C6.1499 19.9718 6.28338 19.9461 6.38419 20.0077C7.57089 20.7328 8.60873 20.8288 9.40525 20.6784C9.60543 20.6406 9.60109 20.3911 9.40587 20.3333L5.95685 19.3133ZM5.92495 16.0876H10.3957H11.2548C11.3734 16.0876 11.468 15.9925 11.4802 15.8762C11.5239 15.4571 11.7006 15.1485 11.9725 14.8504C12.1385 14.6683 12.339 14.4921 12.5751 14.2966C12.6438 14.2397 12.717 14.1801 12.7926 14.1184L12.7939 14.1174C12.9678 13.9756 13.1557 13.8224 13.3384 13.663C13.8784 13.1918 14.4461 12.6058 14.873 11.7556C15.3001 10.9052 15.5694 9.82468 15.5694 8.38172C15.5694 4.722 12.4201 1.79785 8.58985 1.79785C4.75965 1.79785 1.61035 4.722 1.61035 8.38172C1.61035 9.82468 1.87963 10.9052 2.30668 11.7556C2.73359 12.6058 3.30131 13.1918 3.84129 13.663C4.02402 13.8224 4.21206 13.9757 4.38599 14.1175L4.38602 14.1175L4.38604 14.1175C4.46213 14.1796 4.53552 14.2394 4.60458 14.2966C4.84069 14.4921 5.04118 14.6683 5.20724 14.8504C5.47909 15.1485 5.65576 15.4571 5.69954 15.8762C5.71169 15.9925 5.80635 16.0876 5.92495 16.0876ZM11.6617 4.86977C11.0532 4.35224 10.3323 4.07125 9.79886 3.9587C9.68288 3.93422 9.60119 3.82744 9.61797 3.7117L9.70908 3.08298C9.72585 2.96724 9.83472 2.88639 9.95108 2.90899C10.6471 3.04421 11.5735 3.39675 12.3631 4.06837C13.2144 4.79248 13.897 5.88193 13.9547 7.41936C13.959 7.5362 13.8625 7.63134 13.7438 7.63134H13.0996C12.981 7.63134 12.8854 7.53628 12.88 7.41948C12.8245 6.22272 12.3006 5.41328 11.6617 4.86977ZM20.272 20.0162C20.2774 20.0184 20.2782 20.0148 20.2726 20.0131L20.2447 20.0049L20.272 20.0162ZM16.3633 13.2511H18.1322C18.2117 13.2511 18.3269 13.3202 18.3174 13.3962L18.3155 13.4088V13.4088C18.3134 13.4222 18.3113 13.4357 18.3134 13.449L18.4791 14.4895C18.4834 14.5169 18.5013 14.5405 18.5269 14.5529C18.7625 14.6669 18.9962 14.7825 19.1972 14.9299C19.2225 14.9485 19.2561 14.9534 19.2857 14.942L20.3276 14.5393C20.338 14.5352 20.3492 14.5331 20.3605 14.5331H20.4318C20.5121 14.5331 20.5924 14.5683 20.6066 14.6388C20.6095 14.6534 20.6128 14.6681 20.6204 14.681L21.4932 16.157C21.5362 16.24 21.5374 16.3634 21.4563 16.4096C21.4515 16.4123 21.4468 16.415 21.4424 16.4183L20.5706 17.0601C20.5405 17.0822 20.5288 17.1203 20.5376 17.1559C20.5645 17.2654 20.5645 17.3796 20.5645 17.5245C20.5645 17.6161 20.5518 17.6954 20.54 17.769C20.5324 17.8169 20.5251 17.8623 20.5219 17.9072C20.52 17.9351 20.5345 17.9613 20.5582 17.9773L21.5322 18.632C21.5357 18.6343 21.5394 18.6364 21.5431 18.6384C21.6259 18.6838 21.6249 18.8083 21.5817 18.8919L20.6972 20.3876C20.653 20.4731 20.6087 20.5158 20.5203 20.5158H20.4489C20.4376 20.5158 20.4265 20.5137 20.416 20.5097L19.3741 20.107C19.3445 20.0955 19.3109 20.1004 19.2858 20.1193C19.0877 20.2688 18.8576 20.4142 18.6254 20.4984C18.5943 20.5096 18.5713 20.5357 18.5663 20.5674L18.3986 21.6204C18.3983 21.6224 18.3981 21.6245 18.3979 21.6266C18.3977 21.6282 18.3976 21.6298 18.3975 21.6314L18.3973 21.6334C18.3909 21.7166 18.2627 21.7978 18.1765 21.7978H16.4075C16.2782 21.7978 16.191 21.7166 16.1866 21.6334C16.1864 21.629 16.1861 21.6247 16.1854 21.6204L16.0165 20.5595C16.0121 20.5321 15.9943 20.5084 15.9686 20.496C15.7331 20.3821 15.4994 20.2664 15.2984 20.1191C15.273 20.1005 15.2395 20.0955 15.2099 20.107L14.168 20.5097C14.1575 20.5137 14.1463 20.5158 14.1351 20.5158H14.0637C13.9834 20.5158 13.9031 20.4806 13.889 20.4102C13.8861 20.3956 13.8828 20.3808 13.8752 20.3679L13.0023 18.8919C12.9594 18.8089 12.9582 18.6855 13.0393 18.6394C13.0421 18.6378 13.0449 18.6361 13.0477 18.6344C13.0495 18.6332 13.0514 18.632 13.0532 18.6307L13.925 17.9888C13.955 17.9667 13.9668 17.9286 13.9585 17.8929C13.931 17.7744 13.931 17.6339 13.931 17.5245C13.931 17.4604 13.9421 17.3856 13.9531 17.3108C13.9618 17.2519 13.9705 17.1931 13.9739 17.1394C13.9755 17.1128 13.9624 17.0876 13.9404 17.0715L13.0466 16.4134C12.9581 16.3279 12.9139 16.2425 12.9581 16.157L13.8426 14.6613C13.8868 14.5759 13.9753 14.5331 14.0637 14.5331H14.0909C14.1021 14.5331 14.1133 14.5352 14.1237 14.5393L15.1766 14.9462C15.2001 14.9553 15.2265 14.9543 15.2489 14.943C15.3368 14.8987 15.4202 14.8502 15.5025 14.8024C15.6379 14.7236 15.7701 14.6468 15.9141 14.5936C15.9453 14.5821 15.9684 14.5558 15.9733 14.5239L16.1412 13.4283C16.1419 13.4242 16.1421 13.42 16.1424 13.4158C16.1466 13.3325 16.2339 13.2511 16.3633 13.2511ZM18.5762 17.5245C18.5762 18.2325 17.994 18.8065 17.2757 18.8065C16.5575 18.8065 15.9752 18.2325 15.9752 17.5245C15.9752 16.8164 16.5575 16.2425 17.2757 16.2425C17.994 16.2425 18.5762 16.8164 18.5762 17.5245Z" fill="white"/>
</svg>
