<svg width="24" height="24" viewBox="0 0 24 24" fill="none" xmlns="http://www.w3.org/2000/svg">
<path fill-rule="evenodd" clip-rule="evenodd" d="M7.39026 16.0817C8.5001 15.5704 9.8833 15.295 11.6964 15.2297C11.8089 15.2256 11.9019 15.3161 11.9019 15.4287V19.232C11.9019 19.4026 12.1017 19.4949 12.2316 19.3843L20.8757 12.0287C20.9695 11.9488 20.9695 11.8039 20.8757 11.724L12.2316 4.36838C12.1017 4.25786 11.9019 4.35016 11.9019 4.5207V8.36346C11.9019 8.47074 11.8168 8.55879 11.7097 8.56449C8.65284 8.72737 6.36857 9.76667 4.91137 11.66C3.6795 13.261 3.05469 15.4759 3.05469 18.2482V19.479C3.05469 19.6637 3.28351 19.7497 3.40515 19.6108L4.27142 18.6216C5.24411 17.5117 6.14627 16.655 7.39026 16.0817ZM4.07918 17.3455C4.91193 16.4652 5.8017 15.7127 6.97171 15.1735C8.24447 14.5871 9.77198 14.2984 11.6604 14.2303C12.3439 14.2057 12.9019 14.7547 12.9019 15.4287V17.5008L19.5116 11.8764L12.9019 6.25189V8.36346C12.9019 9.01343 12.3897 9.52968 11.7629 9.56308C8.90899 9.71514 6.93542 10.6697 5.70384 12.2699C4.77286 13.4799 4.20096 15.1592 4.07918 17.3455Z" fill="white"/>
</svg>
